<?xml version="1.0" standalone="no"?>
<!DOCTYPE svg PUBLIC "-//W3C//DTD SVG 20010904//EN"
 "http://www.w3.org/TR/2001/REC-SVG-20010904/DTD/svg10.dtd">
<svg version="1.0" xmlns="http://www.w3.org/2000/svg"
 width="500.000000pt" height="500.000000pt" viewBox="0 0 500.000000 500.000000"
 preserveAspectRatio="xMidYMid meet">

<g transform="translate(0.000000,500.000000) scale(0.100000,-0.100000)"
fill="#000000" stroke="none">
<path d="M0 2500 l0 -2500 2500 0 2500 0 0 2500 0 2500 -2500 0 -2500 0 0
-2500z m1826 1630 c53 -33 52 -48 -14 -188 -84 -177 -101 -221 -176 -442 -92
-275 -221 -720 -208 -720 25 0 135 91 242 199 208 211 394 445 368 463 -8 5
-20 0 -34 -15 -11 -12 -31 -31 -44 -42 l-24 -20 25 31 c82 105 155 179 173
176 28 -4 44 -19 56 -58 10 -29 9 -41 -8 -77 -11 -23 -27 -62 -36 -86 -38 -98
-185 -290 -341 -446 -81 -80 -241 -198 -296 -217 -36 -12 -36 -20 -1 -54 81
-77 208 -129 381 -154 97 -15 233 -9 256 10 21 18 12 92 -21 172 -30 71 -30
72 0 56 34 -18 87 -93 93 -134 3 -19 9 -34 13 -34 6 0 30 130 35 190 4 40 28
124 41 140 26 34 76 140 71 152 -5 16 32 91 90 183 75 116 133 173 217 215 68
34 85 36 149 14 51 -17 89 -55 108 -109 7 -19 16 -35 20 -35 4 0 17 16 29 36
20 31 22 45 18 110 -4 65 -3 76 13 84 11 7 20 7 24 0 3 -5 14 -10 24 -10 69 0
120 -211 107 -440 -4 -63 -15 -168 -25 -232 -16 -111 -16 -118 0 -123 22 -7
109 35 109 53 0 7 4 11 10 7 17 -10 0 -30 -53 -62 -85 -51 -102 -75 -141 -208
-20 -66 -50 -157 -66 -202 -28 -80 -29 -83 -10 -83 17 0 18 -3 9 -18 -9 -14
-9 -48 1 -136 l13 -118 30 6 c16 3 38 6 48 6 11 0 28 9 39 20 20 20 28 8 12
-17 -5 -9 -138 -33 -180 -33 -3 0 1 7 8 15 10 11 10 36 0 117 -6 57 -13 104
-14 105 -3 4 -86 -187 -93 -212 -4 -18 -2 -18 16 4 23 26 25 24 11 -13 -5 -15
-17 -26 -27 -26 -13 0 -42 -47 -107 -173 -107 -207 -145 -269 -159 -260 -6 3
-7 1 -3 -6 9 -13 -95 -174 -182 -282 -82 -102 -189 -201 -246 -229 -101 -48
-196 -33 -260 42 -66 77 -82 177 -46 284 23 64 81 196 86 191 2 -1 -12 -41
-31 -87 -40 -99 -45 -132 -10 -75 13 22 28 45 34 51 5 7 7 14 4 18 -3 3 4 3
16 1 12 -2 19 0 16 5 -3 6 -1 18 5 27 11 17 11 17 6 1 -3 -10 -1 -18 4 -18 9
0 103 133 141 199 12 23 25 39 27 36 3 -2 -16 -37 -41 -77 -117 -190 -189
-396 -170 -490 5 -26 10 -29 33 -26 20 3 27 0 26 -11 -1 -9 6 -16 14 -16 9 0
14 7 12 18 -2 9 2 17 8 17 13 0 13 -57 0 -65 -24 -15 -8 -27 28 -20 110 20
243 150 418 410 50 74 93 129 101 127 7 -2 13 2 13 8 0 6 -4 8 -10 5 -5 -3
-10 -4 -10 0 0 3 41 86 90 185 50 99 90 184 90 190 0 5 -8 10 -19 10 -14 0
-17 6 -13 25 2 14 0 25 -6 25 -13 0 -34 -59 -25 -73 3 -5 2 -7 -4 -4 -5 3 -21
-17 -34 -46 -13 -29 -41 -82 -62 -120 -22 -37 -36 -74 -33 -82 3 -8 2 -14 -2
-13 -4 1 -16 -3 -28 -9 -16 -9 6 41 83 193 l103 205 -6 72 c-4 42 -13 79 -22
90 -14 16 -12 17 32 17 26 0 56 4 66 10 11 6 40 65 74 153 60 152 63 162 44
151 -7 -4 -4 2 6 14 18 21 11 31 -10 15 -5 -5 1 2 14 15 13 12 22 27 20 32 -6
19 -219 -160 -373 -312 l-150 -148 45 -86 c25 -47 48 -87 52 -90 10 -6 71 194
64 211 -5 15 14 25 47 25 18 0 19 -1 5 -12 -9 -7 -38 -75 -63 -151 l-48 -137
-39 67 c-22 38 -46 79 -55 92 l-15 23 -31 -28 c-28 -25 -29 -25 -9 -3 12 14
22 32 22 40 -1 14 -37 -24 -91 -95 -43 -57 -35 -68 12 -16 l41 45 -39 -50
c-76 -99 -72 -89 -38 -81 17 4 37 16 46 26 12 14 18 16 22 7 9 -24 -19 -47
-58 -47 -22 0 -47 -7 -58 -17 -11 -10 -17 -12 -13 -5 5 8 -2 12 -24 12 -17 0
-29 4 -26 9 10 16 -17 236 -31 252 -12 14 -6 17 60 22 41 4 81 9 91 13 12 5
16 0 16 -22 0 -24 -2 -26 -12 -12 -10 12 -24 14 -61 9 -26 -3 -48 -9 -47 -13
0 -5 0 -31 0 -59 l0 -52 46 6 c26 2 50 11 55 18 7 11 9 9 9 -6 0 -15 10 -8 45
30 50 57 53 68 25 88 -19 13 -18 15 26 21 42 5 56 16 177 132 124 119 189 174
334 285 59 46 61 49 77 120 24 104 61 328 55 334 -3 2 -16 6 -30 8 -22 4 -24
9 -29 78 l-5 74 -18 -25 c-10 -14 -22 -41 -27 -60 -13 -46 -145 -280 -170
-302 -11 -9 -20 -19 -20 -22 0 -3 -11 -17 -24 -31 -13 -14 -40 -56 -60 -94
-70 -133 -198 -295 -258 -327 -53 -28 -124 -10 -135 35 -3 14 -17 36 -30 48
-15 14 -23 33 -23 54 l0 32 -28 -39 c-43 -59 -97 -102 -139 -111 -77 -16 -263
-8 -348 16 -97 27 -203 83 -272 146 -29 25 -54 42 -56 38 -16 -26 -51 -241
-51 -315 -1 -66 -5 -89 -15 -93 -21 -8 -87 40 -117 85 -25 37 -26 46 -21 118
7 104 48 306 59 290 6 -10 8 -10 8 1 0 8 3 12 6 9 3 -4 -6 -65 -21 -136 -17
-86 -25 -154 -23 -199 3 -74 10 -69 26 17 l10 55 -5 -67 c-4 -47 -2 -68 6 -68
6 0 10 -5 9 -11 -2 -6 7 -13 19 -15 19 -3 22 2 28 50 4 30 4 63 1 74 -4 11 -2
23 4 27 6 4 8 15 5 26 -4 10 -2 19 4 19 10 0 19 33 26 98 2 24 7 57 10 73 4
18 1 41 -10 61 -10 20 -13 43 -9 61 5 22 3 28 -6 22 -10 -6 -11 -1 -6 20 4 15
10 40 13 56 4 24 8 27 24 19 32 -18 46 -11 59 33 7 23 21 67 31 97 76 236 174
579 166 586 -9 9 -21 -21 -70 -166 -50 -147 -86 -240 -87 -226 0 11 94 311
117 371 8 22 17 49 19 59 2 11 9 23 16 28 7 4 10 8 6 8 -4 0 4 30 18 66 14 37
22 69 20 72 -7 6 -36 -61 -36 -81 0 -7 -4 -17 -8 -23 -19 -21 -127 -342 -208
-614 -19 -63 -31 -95 -28 -70 6 40 71 275 140 499 14 45 23 86 20 89 -3 3 -6
-1 -6 -8 0 -7 -2 -11 -5 -8 -3 2 4 30 14 61 11 32 15 57 10 59 -12 4 72 210
145 357 69 137 87 150 152 111z m-515 -530 c44 -42 44 -47 11 -120 -20 -43
-125 -149 -212 -216 -36 -27 -138 -99 -228 -161 l-163 -112 78 -39 c43 -22
121 -66 173 -97 111 -68 252 -137 261 -127 3 4 16 51 29 104 13 55 29 99 36
102 8 3 14 13 14 22 0 10 2 15 6 12 7 -7 -32 -162 -53 -211 -11 -26 -13 -41
-6 -45 7 -5 7 -15 2 -31 -8 -21 -13 -23 -50 -17 -22 3 -116 45 -210 91 -189
95 -289 132 -379 142 -72 7 -87 22 -92 97 l-3 50 200 138 c165 114 223 160
330 266 110 109 202 192 212 192 2 0 21 -18 44 -40z m2717 -120 c207 -102 284
-130 369 -137 77 -7 95 -24 101 -97 l4 -53 -199 -136 c-170 -117 -220 -158
-349 -284 -82 -82 -162 -154 -176 -162 -25 -13 -29 -12 -63 25 -31 33 -36 44
-31 72 14 88 165 226 483 441 68 45 125 86 128 91 3 5 -14 18 -39 28 -24 11
-105 57 -181 102 -127 75 -278 150 -304 150 -17 0 -13 38 5 48 28 16 75 0 252
-88z m-2539 11 c-6 -18 -13 -30 -15 -28 -2 2 1 18 7 36 6 18 13 30 15 28 2 -2
-1 -18 -7 -36z m-80 -240 c-13 -39 -25 -69 -27 -67 -2 3 7 36 19 75 13 39 25
69 27 67 2 -3 -7 -36 -19 -75z m-62 -193 c-3 -8 -6 -5 -6 6 -1 11 2 17 5 13 3
-3 4 -12 1 -19z m0 -160 c-3 -8 -6 -5 -6 6 -1 11 2 17 5 13 3 -3 4 -12 1 -19z
m-10 -40 c-3 -8 -6 -5 -6 6 -1 11 2 17 5 13 3 -3 4 -12 1 -19z m1838 -118 c-3
-5 -12 -10 -18 -10 -7 0 -6 4 3 10 19 12 23 12 15 0z m-1866 -102 c1 -11 -6
-18 -16 -18 -15 0 -16 -2 -3 -10 13 -8 12 -10 -4 -10 -15 0 -17 5 -12 26 4 15
10 40 14 58 l6 31 7 -30 c4 -16 7 -38 8 -47z m918 -30 c-3 -8 -6 -5 -6 6 -1
11 2 17 5 13 3 -3 4 -12 1 -19z m-960 -50 c-3 -8 -6 -5 -6 6 -1 11 2 17 5 13
3 -3 4 -12 1 -19z m-18 -97 c-6 -34 -14 -60 -16 -57 -2 2 1 32 8 65 6 34 14
60 16 57 2 -2 -1 -32 -8 -65z m2996 -136 c33 -32 32 -70 -3 -103 l-28 -27 62
-55 c34 -30 60 -57 58 -58 -10 -12 -78 25 -107 57 -19 21 -45 45 -58 54 l-23
17 22 0 c56 0 87 51 57 96 -12 19 -24 24 -60 24 -44 0 -45 -1 -45 -33 0 -39
18 -194 26 -219 4 -15 -1 -18 -28 -18 -22 0 -29 3 -20 9 19 12 -4 240 -25 258
-12 10 -7 12 28 16 107 9 119 8 144 -18z m-258 -20 c2 -11 0 -14 -3 -7 -6 13
-91 17 -111 4 -9 -6 -11 -24 -6 -60 l6 -52 41 0 c23 0 47 5 54 12 9 9 12 5 12
-17 0 -21 -3 -26 -9 -16 -6 10 -21 12 -53 7 -44 -7 -44 -7 -40 -44 7 -80 6
-79 63 -72 37 5 58 14 71 30 20 25 22 22 9 -13 -9 -22 -17 -26 -83 -32 -40 -3
-82 -9 -93 -12 -17 -5 -18 -4 -4 10 14 13 14 29 3 131 -7 63 -15 120 -19 125
-6 11 16 18 75 24 65 7 85 3 87 -18z m-249 -31 c24 -16 31 -69 12 -104 -14
-26 -90 -52 -90 -30 0 6 7 10 15 10 24 0 55 38 55 67 0 41 -26 63 -77 63 -42
0 -43 -1 -43 -32 0 -82 22 -213 38 -225 13 -11 10 -13 -22 -13 -23 0 -35 4
-31 10 8 14 -14 230 -26 252 -8 15 -3 17 38 21 61 5 102 -1 131 -19z m-310
-24 c34 -15 47 -29 63 -66 47 -105 -24 -204 -146 -204 -75 0 -128 38 -146 103
-13 49 -4 89 29 129 50 59 123 73 200 38z m-928 -83 c0 -2 -15 -16 -32 -33
l-33 -29 29 33 c28 30 36 37 36 29z m-480 -72 c68 -35 86 -155 32 -213 -31
-33 -73 -47 -173 -57 l-65 -6 4 33 c7 61 -16 222 -34 235 -14 10 -9 12 27 16
108 9 181 7 209 -8z m-459 -51 c23 -20 24 -52 5 -80 -13 -18 -12 -21 15 -33
32 -14 45 -46 35 -87 -8 -30 -48 -49 -127 -58 -56 -7 -56 -7 -52 18 9 46 -17
230 -34 243 -12 10 -8 12 28 16 65 6 109 0 130 -19z m-241 -1 c0 -15 -9 -18
-57 -18 l-58 0 -3 -34 c-6 -64 4 -81 48 -81 27 0 42 6 49 18 9 15 10 14 11 -8
0 -23 -4 -25 -44 -25 -25 0 -47 -3 -51 -6 -3 -4 -3 -31 1 -61 l6 -56 42 5 c22
3 54 14 70 25 l28 20 -7 -23 c-4 -13 -8 -25 -9 -26 0 0 -40 -5 -88 -10 -69 -7
-85 -6 -77 4 12 14 -7 231 -22 249 -12 15 10 24 64 25 34 1 68 7 95 18 1 1 2
-7 2 -16z m-233 -31 c-14 -15 -58 -180 -69 -260 -2 -17 -17 4 -58 82 l-55 105
-13 -52 c-8 -29 -20 -79 -26 -112 l-13 -60 -47 94 c-27 52 -59 112 -72 133
-13 20 -24 40 -24 43 0 3 14 5 31 5 16 0 28 -4 24 -9 -5 -9 59 -167 75 -184 4
-5 18 35 30 90 12 54 25 104 29 110 4 8 27 -25 56 -81 28 -52 53 -89 56 -83
12 22 31 147 26 167 -4 15 1 20 27 23 17 2 33 5 35 5 2 1 -3 -6 -12 -16z
m1127 -297 c-9 -14 -18 -25 -21 -25 -5 0 5 18 20 38 17 22 18 13 1 -13z m-144
-105 c-6 -11 -13 -20 -16 -20 -2 0 0 9 6 20 6 11 13 20 16 20 2 0 0 -9 -6 -20z
m-35 -60 c-9 -16 -18 -30 -21 -30 -2 0 2 14 11 30 9 17 18 30 21 30 2 0 -2
-13 -11 -30z m486 -7 c-6 -10 -20 -29 -31 -43 l-21 -25 17 35 c14 30 31 49 42
50 1 0 -2 -8 -7 -17z m-501 -63 c-6 -11 -13 -20 -16 -20 -2 0 0 9 6 20 6 11
13 20 16 20 2 0 0 -9 -6 -20z m374 -99 c3 -5 -3 -11 -15 -14 -16 -4 -18 -3 -8
9 13 16 16 17 23 5z m-64 -64 c0 -2 -12 -14 -27 -28 l-28 -24 24 28 c23 25 31
32 31 24z m-122 -141 c-42 -39 -91 -79 -110 -89 -32 -18 -32 -18 -10 0 73 57
171 146 176 160 4 9 10 12 14 8 4 -4 -27 -39 -70 -79z"/>
<path d="M2713 3301 c-44 -44 -100 -107 -123 -142 -52 -75 -144 -268 -195
-403 -53 -145 -91 -326 -67 -326 4 0 46 39 92 87 46 48 81 82 76 75 -4 -6 -3
-12 3 -12 5 0 26 23 46 50 21 28 40 48 43 45 7 -7 42 25 42 38 0 6 -10 2 -22
-9 -20 -18 -20 -17 2 14 27 36 32 39 24 15 -3 -11 3 -7 15 9 48 59 61 70 31
25 -18 -27 -30 -51 -27 -53 7 -7 95 107 160 206 65 100 89 163 32 85 -20 -27
-41 -50 -47 -50 -6 0 -13 -6 -16 -14 -3 -9 0 -11 8 -6 7 4 -6 -20 -29 -54 -23
-33 -44 -61 -48 -61 -3 0 0 6 6 14 7 8 11 20 10 28 -2 7 16 42 39 78 40 62 54
98 32 85 -5 -3 -18 0 -29 7 -20 12 -20 13 -1 33 62 66 92 316 38 315 -7 0 -50
-36 -95 -79z"/>
<path d="M2955 3260 c-3 -5 -1 -10 4 -10 6 0 11 5 11 10 0 6 -2 10 -4 10 -3 0
-8 -4 -11 -10z"/>
<path d="M2478 3153 c-19 -32 -47 -81 -61 -110 -44 -86 -87 -209 -57 -163 16
24 11 6 -9 -40 -10 -22 -22 -41 -27 -40 -5 1 -10 -4 -13 -11 -2 -7 1 -9 9 -4
10 6 12 4 7 -9 -4 -10 -7 -22 -7 -27 0 -6 -5 -7 -10 -4 -13 8 -31 -39 -35 -95
-2 -25 -6 -54 -8 -65 -16 -71 -17 -131 -3 -150 13 -18 15 -15 21 40 13 116 81
336 164 528 24 57 26 63 8 49 -7 -6 -28 -42 -47 -81 -18 -39 -35 -69 -37 -67
-5 4 83 184 123 252 15 25 24 47 21 50 -3 3 -20 -21 -39 -53z"/>
<path d="M1843 3112 c-33 -42 -280 -292 -288 -292 -12 0 -106 -72 -101 -77 19
-20 219 154 346 302 14 17 36 42 49 57 14 16 22 30 20 32 -2 3 -14 -7 -26 -22z"/>
<path d="M2806 2984 c-9 -24 -2 -26 12 -4 7 11 8 20 3 20 -5 0 -12 -7 -15 -16z"/>
<path d="M1778 2979 c-10 -5 -18 -14 -18 -19 0 -17 15 -11 28 10 14 23 13 23
-10 9z"/>
<path d="M1715 2910 c-3 -5 -1 -10 4 -10 6 0 11 5 11 10 0 6 -2 10 -4 10 -3 0
-8 -4 -11 -10z"/>
<path d="M1670 2875 c-9 -11 -10 -15 -1 -15 7 0 19 7 27 15 13 13 13 15 1 15
-8 0 -20 -7 -27 -15z"/>
<path d="M3057 2863 c3 -24 2 -25 -6 -8 -5 11 -10 17 -10 13 -1 -4 -12 -51
-26 -105 -28 -110 -30 -124 -12 -103 7 8 18 15 26 15 9 0 18 21 26 60 21 102
24 155 10 155 -8 0 -11 -10 -8 -27z m-30 -155 c-3 -8 -6 -5 -6 6 -1 11 2 17 5
13 3 -3 4 -12 1 -19z"/>
<path d="M3100 2818 c-6 -24 -15 -58 -20 -75 -6 -25 -5 -33 5 -33 16 0 22 16
31 93 7 67 -1 75 -16 15z"/>
<path d="M1605 2810 c3 -5 -1 -10 -9 -10 -9 0 -16 -4 -16 -10 0 -17 26 -11 45
10 18 19 17 20 -4 20 -12 0 -19 -4 -16 -10z"/>
<path d="M3051 2577 c-11 -19 -21 -39 -21 -44 0 -6 -12 -46 -26 -89 -14 -44
-28 -88 -30 -99 -3 -11 -7 -27 -9 -35 -2 -8 -4 -23 -4 -33 -1 -10 -6 -15 -11
-12 -6 4 -10 3 -9 -2 1 -4 0 -15 -3 -23 -8 -20 -15 -43 -17 -55 -2 -5 -10 -18
-18 -27 -10 -11 -11 -18 -5 -18 12 0 42 40 46 62 2 7 12 33 23 58 43 98 118
338 109 347 -2 2 -13 -11 -25 -30z"/>
<path d="M2978 2529 c-38 -46 -155 -319 -137 -319 5 0 9 8 9 18 0 14 2 15 10
2 5 -8 10 -25 10 -38 0 -22 -1 -22 -17 -7 -16 16 -17 16 -30 -1 -18 -25 -47
-103 -40 -110 3 -3 18 -3 34 0 24 6 34 20 66 93 48 108 139 372 135 392 -2 10
-16 -1 -40 -30z"/>
<path d="M2220 2465 c0 -15 4 -24 10 -20 6 3 10 12 10 20 0 8 -4 17 -10 20 -6
4 -10 -5 -10 -20z"/>
<path d="M2748 2183 c-2 -5 -1 -28 2 -53 l5 -45 23 49 c12 27 22 50 22 52 0 7
-49 4 -52 -3z"/>
<path d="M2891 2114 c0 -11 3 -14 6 -6 3 7 2 16 -1 19 -3 4 -6 -2 -5 -13z"/>
<path d="M2865 2060 c-3 -5 -1 -10 4 -10 6 0 11 5 11 10 0 6 -2 10 -4 10 -3 0
-8 -4 -11 -10z"/>
<path d="M2767 2053 c-9 -8 -9 -60 -1 -90 11 -40 20 -31 60 65 l14 32 -33 0
c-19 0 -37 -3 -40 -7z"/>
<path d="M2837 2007 c-2 -6 -5 -16 -5 -21 0 -5 -6 -12 -12 -16 -7 -4 -9 -13
-5 -19 10 -18 38 8 32 30 -3 10 0 20 6 22 8 2 8 5 0 10 -6 4 -13 1 -16 -6z"/>
<path d="M2207 1993 c-9 -8 -9 -60 -1 -90 12 -44 62 -17 70 37 1 8 6 25 9 38
7 20 4 22 -32 22 -22 0 -43 -3 -46 -7z"/>
<path d="M2776 1883 c-13 -28 -14 -33 -1 -33 8 0 21 13 30 30 18 36 18 37 1
37 -8 0 -21 -15 -30 -34z"/>
<path d="M2742 1808 c-19 -25 -42 -77 -42 -98 0 -12 -4 -18 -10 -15 -6 3 -7
-1 -4 -9 3 -9 8 -16 9 -16 5 0 50 95 48 102 -1 3 4 12 12 18 17 14 20 30 6 30
-5 0 -13 -6 -19 -12z"/>
<path d="M2660 1645 c0 -8 2 -15 4 -15 2 0 6 7 10 15 3 8 1 15 -4 15 -6 0 -10
-7 -10 -15z"/>
<path d="M2635 1610 c-3 -6 1 -7 9 -4 18 7 21 14 7 14 -6 0 -13 -4 -16 -10z"/>
<path d="M2535 1410 c-3 -5 -1 -10 4 -10 6 0 11 5 11 10 0 6 -2 10 -4 10 -3 0
-8 -4 -11 -10z"/>
<path d="M1965 1370 c-3 -5 -1 -10 4 -10 6 0 11 5 11 10 0 6 -2 10 -4 10 -3 0
-8 -4 -11 -10z"/>
<path d="M2465 1310 c-3 -5 -1 -10 4 -10 6 0 11 5 11 10 0 6 -2 10 -4 10 -3 0
-8 -4 -11 -10z"/>
<path d="M883 3272 c-47 -29 -60 -53 -15 -26 41 24 79 54 67 53 -5 0 -29 -13
-52 -27z"/>
<path d="M706 3155 c-87 -60 -118 -86 -112 -93 5 -4 142 89 183 126 46 39 10
23 -71 -33z"/>
<path d="M560 3042 c0 -13 49 -22 56 -11 3 5 -1 9 -10 9 -8 0 -21 3 -30 6 -9
3 -16 2 -16 -4z"/>
<path d="M4425 3200 c11 -5 27 -9 35 -9 9 0 8 4 -5 9 -11 5 -27 9 -35 9 -9 0
-8 -4 5 -9z"/>
<path d="M4350 3125 c-101 -72 -132 -96 -127 -102 6 -6 166 105 194 134 34 35
15 27 -67 -32z"/>
<path d="M4137 2978 c-26 -17 -47 -35 -47 -40 0 -5 21 5 48 23 58 40 56 38 51
43 -3 3 -26 -9 -52 -26z"/>
<path d="M1291 2644 c0 -11 3 -14 6 -6 3 7 2 16 -1 19 -3 4 -6 -2 -5 -13z"/>
<path d="M3268 2221 c-31 -28 -33 -34 -33 -95 0 -60 3 -68 30 -96 80 -80 205
-25 205 90 0 82 -45 130 -122 130 -39 0 -54 -6 -80 -29z"/>
<path d="M1863 2093 c-18 -2 -33 -10 -32 -16 0 -7 6 -61 12 -122 l13 -110 54
2 c30 2 67 7 81 13 79 33 79 184 -1 225 -28 14 -58 16 -127 8z"/>
<path d="M1453 1998 c4 -29 10 -86 13 -127 l7 -73 39 5 c22 3 48 13 59 23 44
39 8 104 -58 104 l-38 0 35 18 c38 18 49 47 30 81 -8 16 -21 21 -52 21 l-41 0
6 -52z"/>
</g>
</svg>
